<svg width="187" height="187" xmlns="http://www.w3.org/2000/svg" xmlns:xlink="http://www.w3.org/1999/xlink" overflow="hidden"><defs><clipPath id="clip0"><rect x="479" y="318" width="187" height="187"/></clipPath></defs><g clip-path="url(#clip0)" transform="translate(-479 -318)"><path d="M543.281 377.996C543.281 387.678 535.432 395.527 525.75 395.527 516.068 395.527 508.219 387.678 508.219 377.996 508.219 368.314 516.068 360.465 525.75 360.465 535.432 360.465 543.281 368.314 543.281 377.996Z" fill="#0071CE"/><path d="M636.781 377.996C636.781 387.678 628.932 395.527 619.25 395.527 609.568 395.527 601.719 387.678 601.719 377.996 601.719 368.314 609.568 360.465 619.25 360.465 628.932 360.465 636.781 368.314 636.781 377.996Z" fill="#0071CE"/><path d="M607.562 462.535 607.562 445.004C607.562 442.277 606.394 439.55 604.056 437.992 599.381 434.096 593.148 431.369 586.915 429.81 582.629 428.642 577.565 427.473 572.5 427.473 567.825 427.473 562.76 428.252 558.085 429.81 551.852 431.369 546.008 434.485 540.944 437.992 538.606 439.94 537.438 442.277 537.438 445.004L537.438 462.535 607.562 462.535Z" fill="#0071CE"/><path d="M590.031 405.267C590.031 414.949 582.182 422.798 572.5 422.798 562.818 422.798 554.969 414.949 554.969 405.267 554.969 395.584 562.818 387.735 572.5 387.735 582.182 387.735 590.031 395.584 590.031 405.267Z" fill="#0071CE"/><path d="M650.806 410.721C646.131 406.825 639.898 404.098 633.665 402.54 629.379 401.371 624.315 400.202 619.25 400.202 614.575 400.202 609.51 400.981 604.835 402.54 602.498 403.319 600.16 404.098 597.823 405.267L597.823 405.656C597.823 412.279 595.096 418.513 590.81 422.798 598.213 425.135 604.056 428.252 608.731 431.758 609.9 432.927 611.069 433.706 611.848 435.265L654.312 435.265 654.312 417.733C654.312 415.006 653.144 412.279 650.806 410.721Z" fill="#0071CE"/><path d="M536.269 431.758 536.269 431.758C541.723 427.862 547.956 424.746 554.19 422.798 549.904 418.123 547.177 412.279 547.177 405.656 547.177 405.267 547.177 405.267 547.177 404.877 544.84 404.098 542.502 402.929 540.165 402.54 535.879 401.371 530.815 400.202 525.75 400.202 521.075 400.202 516.01 400.981 511.335 402.54 505.102 404.487 499.258 407.215 494.194 410.721 491.856 412.279 490.688 415.006 490.688 417.733L490.688 435.265 532.763 435.265C533.931 433.706 534.71 432.927 536.269 431.758Z" fill="#0071CE"/></g></svg>